<svg xmlns="http://www.w3.org/2000/svg" version="1.1" xmlns:xlink="http://www.w3.org/1999/xlink" xmlns:svgjs="http://svgjs.dev/svgjs" width="1000" height="623" viewBox="0 0 1000 623"><g transform="matrix(1,0,0,1,-0.6060606060606233,0.2522267206477409)"><svg viewBox="0 0 396 247" data-background-color="#ffffff" preserveAspectRatio="xMidYMid meet" height="623" width="1000" xmlns="http://www.w3.org/2000/svg" xmlns:xlink="http://www.w3.org/1999/xlink"><g id="tight-bounds" transform="matrix(1,0,0,1,0.2400000000000091,-0.09999999999999432)"><svg viewBox="0 0 395.52 247.2" height="247.2" width="395.52"><g><svg></svg></g><g><svg viewBox="0 0 395.52 247.2" height="247.2" width="395.52"><g transform="matrix(1,0,0,1,136.03042325581396,47.215199999999996)"><svg viewBox="0 0 123.45915348837208 152.7696" height="152.7696" width="123.45915348837208"><g><svg viewBox="0 0 123.45915348837208 152.7696" height="152.7696" width="123.45915348837208"><g><svg viewBox="0 0 123.45915348837211 152.76960000000003" height="152.7696" width="123.45915348837208"><g><svg viewBox="0 0 123.45915348837211 152.76960000000003" height="152.76960000000003" width="123.45915348837211"><g id="textblocktransform"><svg viewBox="0 0 123.45915348837211 152.76960000000003" height="152.76960000000003" width="123.45915348837211" id="textblock"><g><svg viewBox="0 0 123.45915348837211 152.76960000000003" height="152.76960000000003" width="123.45915348837211"><g transform="matrix(1,0,0,1,0,0)"><svg width="123.45915348837211" viewBox="3.7 -34.4 27.8 34.4" height="152.76960000000003" data-palette-color="#915eff"><path d="M3.7 0L3.7-34.4 31.5-34.4 31.5-26.15 14.75-26.15 14.75-20.25 29.15-20.25 29.15-12.35 14.75-12.35 14.75 0 3.7 0Z" opacity="1" transform="matrix(1,0,0,1,0,0)" fill="#915eff" class="wordmark-text-0" data-fill-palette-color="primary" id="text-0"></path></svg></g></svg></g></svg></g></svg></g></svg></g></svg></g></svg></g><path d="M318.332 41.215L318.332 0 71.132 0 71.132 247.2 318.332 247.2 318.332 205.985 304.555 205.985 304.555 233.423 84.909 233.423 84.909 13.777 304.555 13.777 304.555 41.215Z" fill="#915eff" stroke="transparent" data-fill-palette-color="primary"></path></svg></g><defs></defs></svg><rect width="395.52" height="247.2" fill="none" stroke="none" visibility="hidden"></rect></g></svg></g></svg>